<svg width="97" height="36" viewBox="0 0 97 36" fill="none" xmlns="http://www.w3.org/2000/svg">
<g id="JuboLogo2020 1">
<g id="&#229;&#156;&#150;&#229;&#177;&#164;_1">
<g id="Group">
<g id="Group_2">
<g id="Group_3">
<path id="Vector" d="M84.7441 10.0386C78.7899 10.0386 73.9434 14.3309 73.9434 19.6617C73.9434 24.9924 78.7899 29.2847 84.7441 29.2847C90.6984 29.2847 95.5449 24.9924 95.5449 19.6617C95.5449 14.3309 90.6984 10.0386 84.7441 10.0386ZM84.7441 24.4386C81.4208 24.4386 78.7206 22.2924 78.7206 19.5924C78.7206 16.9617 81.4208 14.7463 84.7441 14.7463C88.0675 14.7463 90.7677 16.8924 90.7677 19.5924C90.6984 22.2924 88.0675 24.4386 84.7441 24.4386Z" fill="#00B2BF"/>
<path id="Vector_2" d="M1.59247 18.4845C1.454 18.4845 1.38477 18.5538 1.38477 18.6922V19.1076C1.38477 25.4076 6.78516 29.3538 12.1855 29.3538C18.8322 29.3538 22.9863 24.5076 22.9863 18.8307V7.54607C22.9863 7.40761 22.9171 7.33838 22.7786 7.33838H18.3475C18.2091 7.33838 18.1398 7.40761 18.1398 7.54607V17.8615C18.1398 22.0845 15.1627 24.5076 12.1163 24.5076C8.58529 24.5076 6.16203 22.4999 6.0928 18.6922C6.0928 18.5538 6.02356 18.4845 5.88509 18.4845H1.59247Z" fill="#00B2BF"/>
<path id="Vector_3" d="M60.9267 10.0384C58.8496 10.0384 56.8417 10.5923 55.1801 11.4923C55.0416 11.5615 54.9031 11.4923 54.9031 11.3538V6.92302C54.9031 6.78456 54.8339 6.71533 54.6954 6.71533H50.2643C50.1259 6.71533 50.0566 6.78456 50.0566 6.92302V19.6615C50.0566 25.9615 55.8032 29.2846 60.8574 29.2846C66.8117 29.2846 71.6582 24.9922 71.6582 19.6615C71.7967 14.3307 66.9502 10.0384 60.9267 10.0384ZM60.9267 24.4384C57.6033 24.4384 54.9031 22.2922 54.9031 19.5922C54.9031 16.9615 57.6033 14.7461 60.9267 14.7461C64.25 14.7461 66.9502 16.8923 66.9502 19.5922C66.9502 22.2922 64.25 24.4384 60.9267 24.4384Z" fill="#00B2BF"/>
<path id="Vector_4" d="M42.7868 12.7383C42.6483 12.7383 42.5791 12.8075 42.5791 12.946V19.0383C42.5791 22.0152 39.8789 24.4383 36.5556 24.4383C33.2322 24.4383 30.5321 22.0152 30.5321 19.0383V12.946C30.5321 12.8075 30.4628 12.7383 30.3243 12.7383H25.8933C25.7548 12.7383 25.6855 12.8075 25.6855 12.946V19.0383C25.6855 25.3383 30.5321 29.2844 36.4863 29.2844C42.4406 29.2844 47.2871 25.4075 47.2871 19.0383V12.946C47.2871 12.8075 47.2179 12.7383 47.0794 12.7383H42.7868Z" fill="#00B2BF"/>
</g>
</g>
</g>
</g>
</g>
</svg>
